<svg width="380" height="105" viewBox="0 0 380 105" fill="none" xmlns="http://www.w3.org/2000/svg">
<path d="M3.31065 100.995H117.633V4.66407H3.31065V100.995ZM120.809 104.171H0.135986V1.48959H120.809V104.171Z" fill="white"/>
<path d="M117.633 100.995H3.31067V4.66391H117.633V100.995Z" fill="#1D1D1B"/>
<path d="M109.032 60.7475C108.99 60.2075 108.525 54.8328 105.937 47.1835C103.486 39.9435 98.5756 29.1995 89.093 19.0955C87.413 16.9435 84.4943 16.2782 81.9503 17.4835C81.9383 17.4888 81.9263 17.4955 81.9143 17.5008C79.129 18.8942 77.9836 22.3795 79.361 25.2715C79.3863 25.3262 79.4143 25.3795 79.4463 25.4302C79.7316 25.9075 80.1356 26.5088 80.7556 27.0075C81.333 27.5888 85.6436 32.0408 89.8103 39.3928C87.381 38.8902 84.8956 38.7782 82.4543 39.0742C75.9876 39.7262 70.1703 42.8608 66.0716 47.9048C61.9996 52.9168 60.1343 59.2128 60.8183 65.6328C61.4623 72.0982 64.5716 77.9155 69.5756 82.0155C73.945 85.5942 79.3143 87.4995 84.913 87.4995C85.7276 87.4995 86.549 87.4595 87.3716 87.3782C93.821 86.7328 99.633 83.5942 103.738 78.5422C107.832 73.5035 109.712 67.1848 109.032 60.7475ZM94.4103 71.0862C92.2396 73.8222 89.3396 75.4995 86.2436 75.8102C86.2383 75.8102 86.233 75.8115 86.2276 75.8115C83.1676 76.1422 80.021 75.1355 77.3703 72.9742C74.477 70.6155 72.6263 67.2542 72.293 63.7528L72.2903 63.7275C71.9423 60.5222 72.9356 57.3955 75.0876 54.9235C77.2263 52.4675 80.2516 50.9128 83.605 50.5448C86.6076 50.2675 89.621 50.9995 92.093 52.6062C94.529 54.1888 96.281 56.5235 97.0316 59.1875C97.209 60.0715 97.3743 60.9115 97.457 61.8128C97.6476 65.0235 96.5383 68.4008 94.4103 71.0862Z" fill="#EA5B2C"/>
<path d="M60.1259 38.752C59.4832 32.2853 56.3725 26.4666 51.3685 22.368C46.3619 18.268 40.0432 16.3626 33.5725 17.0053C27.1232 17.6493 21.3112 20.788 17.2059 25.84C13.1125 30.8786 11.2325 37.1973 11.9125 43.636C11.9539 44.176 12.4192 49.5506 15.0072 57.1986C17.4579 64.4386 22.3685 75.1826 31.8512 85.288C32.9712 86.7213 34.6405 87.4946 36.3832 87.4946C37.2552 87.4946 38.1459 87.3013 38.9939 86.8986C39.0059 86.8933 39.0179 86.888 39.0299 86.8813C41.8152 85.4893 42.9605 82.0026 41.5832 79.112C41.5579 79.0573 41.5299 79.004 41.4979 78.952C41.2125 78.476 40.8085 77.8746 40.1885 77.376C39.6112 76.7933 35.2992 72.3413 31.1339 64.9893C33.5632 65.4933 36.0485 65.604 38.4885 65.3093C44.9565 64.6573 50.7739 61.5213 54.8712 56.4773C58.9445 51.4666 60.8099 45.1706 60.1259 38.752ZM45.8565 49.4586C43.7179 51.916 40.6925 53.4706 37.3379 53.8373C34.3379 54.1146 31.3232 53.3826 28.8512 51.7773C26.4152 50.1946 24.6632 47.8586 23.9125 45.1946C23.7352 44.3106 23.5699 43.472 23.4872 42.5693C23.2952 39.36 24.4059 35.9813 26.5339 33.2973C28.7045 30.56 31.6045 28.8826 34.7005 28.5733C34.7059 28.572 34.7112 28.572 34.7165 28.572C37.7765 28.24 40.9232 29.2466 43.5739 31.4093C46.4672 33.7666 48.3179 37.128 48.6512 40.6306C48.6525 40.6386 48.6539 40.6466 48.6539 40.6546C49.0019 43.8613 48.0085 46.988 45.8565 49.4586Z" fill="white"/>
<path d="M125.975 100.355H372.275V4.02426H125.975V100.355ZM379.115 103.53H119.132V0.848476H379.115V103.53Z" fill="white"/>
<path d="M375.615 100.355H122.255V4.02426H375.615V100.355Z" fill="#EA5B2C"/>
<path d="M162.144 69.6539V60.8798H176.621V86.6903C169.651 87.8115 163.996 88.372 159.658 88.372C151.908 88.372 146.57 86.3004 143.645 82.157C140.769 78.0137 139.331 71.4331 139.331 62.4153C139.331 53.3974 140.842 46.89 143.865 42.8929C146.887 38.8958 152.029 36.8972 159.292 36.8972C163.826 36.8972 168.725 37.409 173.989 38.4327L176.621 38.9445L176.329 46.7681C170.479 46.1344 165.678 45.8176 161.925 45.8176C158.22 45.8176 155.612 46.2563 154.101 47.1337C152.59 48.0111 151.469 49.6441 150.738 52.0326C150.055 54.3723 149.714 58.4182 149.714 64.1701C149.714 69.8733 150.421 73.8704 151.834 76.1614C153.248 78.4524 156.173 79.5979 160.609 79.5979L166.677 79.3055V69.6539H162.144ZM196.241 70.8238V87.4946H186.151V37.7746H205.454C217.153 37.7746 223.002 43.2341 223.002 54.153C223.002 60.6361 220.565 65.4131 215.69 68.484L222.783 87.4946H211.742L205.966 70.8238H196.241ZM205.6 62.1959C207.988 62.1959 209.768 61.4647 210.938 60.0024C212.107 58.54 212.692 56.6146 212.692 54.2261C212.692 51.8376 212.059 49.9365 210.791 48.5229C209.573 47.1093 207.793 46.4025 205.454 46.4025H196.241V62.1959H205.6ZM241.802 75.7958C243.264 78.3305 245.969 79.5979 249.918 79.5979C253.866 79.5979 256.547 78.3305 257.961 75.7958C259.423 73.2123 260.154 68.9227 260.154 62.9271C260.154 56.8827 259.423 52.4956 257.961 49.7659C256.498 47.0362 253.817 45.6713 249.918 45.6713C246.018 45.6713 243.337 47.0362 241.875 49.7659C240.413 52.4956 239.681 56.8827 239.681 62.9271C239.681 68.9227 240.388 73.2123 241.802 75.7958ZM265.857 82.2302C262.787 86.3247 257.473 88.372 249.918 88.372C242.362 88.372 237.025 86.3247 233.905 82.2302C230.834 78.0868 229.299 71.6281 229.299 62.854C229.299 54.0799 230.834 47.5724 233.905 43.3316C237.025 39.042 242.362 36.8972 249.918 36.8972C257.473 36.8972 262.787 39.042 265.857 43.3316C268.977 47.5724 270.537 54.0799 270.537 62.854C270.537 71.6281 268.977 78.0868 265.857 82.2302ZM288.842 70.8969C288.842 76.6976 291.791 79.5979 297.689 79.5979C303.587 79.5979 306.536 76.6976 306.536 70.8969V37.7746H316.626V70.6776C316.626 76.7707 315.042 81.2553 311.874 84.1312C308.754 86.9584 304.026 88.372 297.689 88.372C291.352 88.372 286.599 86.9584 283.431 84.1312C280.311 81.2553 278.751 76.7707 278.751 70.6776V37.7746H288.842V70.8969ZM345.31 73.0173H337.121V87.4946H327.031V37.7746H345.31C357.106 37.7746 363.005 43.5265 363.005 55.0304C363.005 60.8311 361.493 65.2912 358.471 68.4109C355.498 71.4819 351.111 73.0173 345.31 73.0173ZM337.121 64.3894H345.237C350.258 64.3894 352.768 61.2698 352.768 55.0304C352.768 51.9594 352.159 49.7659 350.94 48.4498C349.722 47.0849 347.82 46.4025 345.237 46.4025H337.121V64.3894Z" fill="white"/>
</svg>
