<svg width="300" height="137" viewBox="0 0 300 137" fill="none" xmlns="http://www.w3.org/2000/svg">
<path d="M4.91864 132.457H151.281V9.1289H4.91864V132.457ZM155.345 136.522H0.85199V5.06347H155.345V136.522Z" fill="#F05A28"/>
<path d="M140.268 80.9296C140.215 80.2376 139.62 73.3576 136.305 63.5643C133.169 54.295 126.883 40.5403 114.741 27.6043C112.591 24.8483 108.853 23.999 105.597 25.5403C105.581 25.5483 105.567 25.555 105.551 25.563C101.985 27.3456 100.519 31.8083 102.281 35.511C102.315 35.5816 102.351 35.6496 102.391 35.715C102.757 36.3256 103.275 37.095 104.067 37.7336C104.807 38.4776 110.327 44.1776 115.66 53.591C112.549 52.9456 109.367 52.8043 106.243 53.1816C97.9625 54.0163 90.5158 58.031 85.2692 64.4883C80.0545 70.9056 77.6665 78.9643 78.5425 87.183C79.3665 95.4616 83.3492 102.91 89.7545 108.158C95.3492 112.739 102.223 115.179 109.389 115.179C110.433 115.179 111.485 115.127 112.539 115.023C120.793 114.198 128.235 110.18 133.491 103.711C138.732 97.2603 141.139 89.1723 140.268 80.9296ZM121.548 94.1656C118.771 97.6683 115.057 99.8163 111.093 100.214C111.087 100.214 111.08 100.215 111.073 100.215C107.156 100.639 103.128 99.3496 99.7318 96.583C96.0292 93.563 93.6598 89.2603 93.2318 84.7763L93.2292 84.7456C92.7838 80.6416 94.0558 76.6376 96.8105 73.4736C99.5492 70.3283 103.423 68.3376 107.716 67.8683C111.559 67.5136 115.417 68.4496 118.583 70.5056C121.701 72.5323 123.944 75.523 124.905 78.9336C125.131 80.0656 125.343 81.139 125.451 82.2936C125.695 86.403 124.273 90.7283 121.548 94.1656Z" fill="#F05A28"/>
<path d="M77.6562 52.7697C76.8322 44.491 72.8509 37.0417 66.4442 31.7937C60.0349 26.5444 51.9455 24.1057 43.6602 24.9284C35.4055 25.7537 27.9642 29.771 22.7082 36.239C17.4669 42.6897 15.0602 50.779 15.9309 59.0217C15.9842 59.7137 16.5789 66.5937 19.8922 76.3857C23.0295 85.655 29.3162 99.411 41.4575 112.347C42.8909 114.183 45.0282 115.172 47.2589 115.172C48.3749 115.172 49.5162 114.924 50.6015 114.41C50.6175 114.403 50.6322 114.395 50.6482 114.387C54.2135 112.604 55.6802 108.142 53.9175 104.439C53.8842 104.37 53.8482 104.302 53.8082 104.236C53.4415 103.626 52.9255 102.855 52.1322 102.218C51.3922 101.472 45.8722 95.7724 40.5389 86.3604C43.6482 87.0044 46.8309 87.147 49.9549 86.7697C58.2349 85.935 65.6829 81.9204 70.9295 75.463C76.1429 69.047 78.5322 60.987 77.6562 52.7697ZM59.3882 66.4764C56.6495 69.6217 52.7762 71.6124 48.4829 72.083C44.6402 72.4377 40.7815 71.5004 37.6175 69.4444C34.4975 67.419 32.2549 64.4284 31.2935 61.0177C31.0682 59.8857 30.8562 58.811 30.7482 57.6564C30.5042 53.547 31.9255 49.223 34.6509 45.7857C37.4282 42.2817 41.1415 40.1337 45.1055 39.7377C45.1122 39.7377 45.1189 39.7364 45.1255 39.735C49.0442 39.311 53.0709 40.6004 56.4655 43.3684C60.1695 46.387 62.5389 50.691 62.9669 55.1737C62.9669 55.1844 62.9682 55.195 62.9695 55.2057C63.4149 59.3097 62.1429 63.3124 59.3882 66.4764Z" fill="white"/>
<path d="M181.633 53.1129C177.768 53.1129 174.845 52.0258 172.864 49.8517C170.884 47.6293 169.893 44.4648 169.893 40.3582V37.4594H177.43V40.938C177.43 44.2233 178.807 45.8659 181.561 45.8659C182.914 45.8659 183.928 45.4794 184.604 44.7064C185.329 43.8851 185.692 42.5806 185.692 40.793C185.692 38.6672 185.208 36.8072 184.242 35.2129C183.276 33.5702 181.488 31.6135 178.879 29.3428C175.594 26.444 173.299 23.8351 171.995 21.5161C170.69 19.1487 170.038 16.4915 170.038 13.5444C170.038 9.5344 171.053 6.44236 173.082 4.26827C175.111 2.04586 178.058 0.934659 181.923 0.934659C185.74 0.934659 188.614 2.04586 190.547 4.26827C192.528 6.44236 193.518 9.58272 193.518 13.6893V15.791H185.981V13.182C185.981 11.4428 185.643 10.1866 184.967 9.41362C184.29 8.5923 183.3 8.18164 181.996 8.18164C179.338 8.18164 178.01 9.80013 178.01 13.0371C178.01 14.873 178.493 16.5881 179.459 18.1825C180.474 19.7768 182.285 21.7093 184.894 23.98C188.228 26.8788 190.523 29.5119 191.779 31.8792C193.035 34.2466 193.663 37.0246 193.663 40.2133C193.663 44.3682 192.624 47.5569 190.547 49.7793C188.518 52.0017 185.547 53.1129 181.633 53.1129ZM198.234 1.65936H206.206V52.3882H198.234V1.65936ZM223.481 53.1129C219.616 53.1129 216.669 52.0258 214.64 49.8517C212.611 47.6293 211.596 44.4648 211.596 40.3582V13.6893C211.596 9.58272 212.611 6.44236 214.64 4.26827C216.669 2.04586 219.616 0.934659 223.481 0.934659C227.346 0.934659 230.293 2.04586 232.322 4.26827C234.352 6.44236 235.366 9.58272 235.366 13.6893V18.0375H227.829V13.182C227.829 9.84844 226.452 8.18164 223.698 8.18164C220.945 8.18164 219.568 9.84844 219.568 13.182V40.938C219.568 44.2233 220.945 45.8659 223.698 45.8659C226.452 45.8659 227.829 44.2233 227.829 40.938V31.0096H223.843V23.7626H235.366V40.3582C235.366 44.4648 234.352 47.6293 232.322 49.8517C230.293 52.0258 227.346 53.1129 223.481 53.1129ZM240.484 1.65936H250.485L258.239 32.0242H258.384V1.65936H265.486V52.3882H257.297L247.731 15.3561H247.586V52.3882H240.484V1.65936ZM281.775 53.1129C277.909 53.1129 274.987 52.0258 273.006 49.8517C271.025 47.6293 270.034 44.4648 270.034 40.3582V37.4594H277.571V40.938C277.571 44.2233 278.948 45.8659 281.702 45.8659C283.055 45.8659 284.069 45.4794 284.746 44.7064C285.47 43.8851 285.833 42.5806 285.833 40.793C285.833 38.6672 285.35 36.8072 284.383 35.2129C283.417 33.5702 281.63 31.6135 279.021 29.3428C275.735 26.444 273.44 23.8351 272.136 21.5161C270.832 19.1487 270.179 16.4915 270.179 13.5444C270.179 9.5344 271.194 6.44236 273.223 4.26827C275.252 2.04586 278.199 0.934659 282.064 0.934659C285.881 0.934659 288.756 2.04586 290.688 4.26827C292.669 6.44236 293.66 9.58272 293.66 13.6893V15.791H286.123V13.182C286.123 11.4428 285.784 10.1866 285.108 9.41362C284.432 8.5923 283.441 8.18164 282.137 8.18164C279.48 8.18164 278.151 9.80013 278.151 13.0371C278.151 14.873 278.634 16.5881 279.6 18.1825C280.615 19.7768 282.427 21.7093 285.036 23.98C288.369 26.8788 290.664 29.5119 291.92 31.8792C293.176 34.2466 293.804 37.0246 293.804 40.2133C293.804 44.3682 292.766 47.5569 290.688 49.7793C288.659 52.0017 285.688 53.1129 281.775 53.1129Z" fill="white"/>
<path d="M171.068 130.187H209.997V97.385H171.068V130.187ZM211.08 131.269H169.988V96.3036H211.08V131.269Z" fill="white"/>
<path d="M209.999 130.188H171.069V97.3851H209.999V130.188Z" fill="#1D1D1B"/>
<path d="M207.069 116.483C207.054 116.299 206.897 114.469 206.016 111.864C205.181 109.399 203.509 105.74 200.28 102.299C199.708 101.567 198.713 101.34 197.848 101.751C197.844 101.752 197.84 101.755 197.836 101.756C196.886 102.231 196.497 103.417 196.965 104.403C196.974 104.421 196.984 104.439 196.994 104.456C197.092 104.619 197.229 104.824 197.44 104.993C197.637 105.191 199.105 106.707 200.524 109.211C199.697 109.04 198.85 109.001 198.02 109.103C195.817 109.324 193.836 110.392 192.441 112.109C191.053 113.816 190.418 115.96 190.652 118.147C190.87 120.348 191.929 122.329 193.633 123.725C195.121 124.944 196.95 125.593 198.856 125.592C199.133 125.592 199.413 125.579 199.693 125.551C201.889 125.331 203.869 124.263 205.266 122.543C206.661 120.827 207.301 118.675 207.069 116.483ZM202.09 120.003C201.352 120.935 200.364 121.507 199.309 121.612C199.308 121.612 199.305 121.612 199.304 121.612C198.262 121.725 197.19 121.383 196.288 120.647C195.302 119.843 194.672 118.699 194.558 117.507L194.557 117.497C194.44 116.405 194.777 115.341 195.51 114.5C196.238 113.663 197.269 113.133 198.41 113.009C199.433 112.915 200.46 113.163 201.301 113.711C202.13 114.249 202.728 115.044 202.982 115.952C203.042 116.253 203.1 116.539 203.128 116.845C203.193 117.939 202.814 119.089 202.09 120.003Z" fill="#EA5B2C"/>
<path d="M190.415 108.993C190.197 106.79 189.137 104.81 187.433 103.413C185.729 102.017 183.577 101.369 181.373 101.587C179.178 101.807 177.198 102.875 175.801 104.595C174.406 106.311 173.766 108.463 173.998 110.655C174.011 110.839 174.17 112.67 175.051 115.274C175.886 117.739 177.558 121.398 180.787 124.839C181.169 125.327 181.737 125.59 182.33 125.59C182.627 125.59 182.93 125.525 183.219 125.387C183.223 125.386 183.227 125.383 183.231 125.382C184.181 124.907 184.57 123.721 184.101 122.735C184.093 122.717 184.083 122.699 184.073 122.682C183.975 122.519 183.837 122.314 183.626 122.145C183.43 121.946 181.962 120.43 180.543 117.927C181.37 118.098 182.217 118.137 183.047 118.035C185.25 117.814 187.231 116.746 188.626 115.029C190.013 113.322 190.649 111.178 190.415 108.993ZM185.557 112.638C184.827 113.475 183.798 114.005 182.655 114.13C181.634 114.225 180.607 113.975 179.766 113.427C178.937 112.889 178.339 112.094 178.083 111.186C178.023 110.886 177.967 110.599 177.939 110.293C177.874 109.199 178.251 108.049 178.977 107.135C179.715 106.203 180.703 105.631 181.758 105.526C181.759 105.526 181.761 105.526 181.763 105.526C182.805 105.413 183.877 105.757 184.779 106.493C185.765 107.295 186.394 108.439 186.509 109.633C186.509 109.635 186.509 109.638 186.509 109.641C186.627 110.733 186.289 111.797 185.557 112.638Z" fill="white"/>
<path d="M212.839 129.97H296.709V97.1676H212.839V129.97ZM299.039 131.052H210.509V96.0863H299.039V131.052Z" fill="white"/>
<path d="M297.847 129.97H211.572V97.1675H297.847V129.97Z" fill="#EA5B2C"/>
<path d="M225.157 119.254V116.266H230.087V125.055C227.713 125.437 225.788 125.628 224.31 125.628C221.671 125.628 219.854 124.922 218.858 123.512C217.878 122.101 217.389 119.86 217.389 116.789C217.389 113.718 217.903 111.502 218.932 110.141C219.961 108.78 221.713 108.1 224.186 108.1C225.73 108.1 227.398 108.274 229.19 108.622L230.087 108.797L229.987 111.461C227.995 111.245 226.36 111.137 225.082 111.137C223.821 111.137 222.933 111.287 222.418 111.585C221.904 111.884 221.522 112.44 221.273 113.253C221.04 114.05 220.924 115.428 220.924 117.387C220.924 119.329 221.165 120.69 221.646 121.47C222.128 122.25 223.124 122.64 224.634 122.64L226.701 122.541V119.254H225.157ZM236.768 119.652V125.329H233.332V108.398H239.905C243.889 108.398 245.88 110.257 245.88 113.976C245.88 116.183 245.05 117.81 243.391 118.856L245.806 125.329H242.046L240.079 119.652H236.768ZM239.955 116.714C240.768 116.714 241.374 116.465 241.772 115.967C242.171 115.469 242.37 114.814 242.37 114C242.37 113.187 242.154 112.54 241.722 112.058C241.307 111.577 240.702 111.336 239.905 111.336H236.768V116.714H239.955ZM252.282 121.345C252.78 122.209 253.701 122.64 255.046 122.64C256.39 122.64 257.303 122.209 257.785 121.345C258.283 120.466 258.532 119.005 258.532 116.963C258.532 114.905 258.283 113.411 257.785 112.482C257.287 111.552 256.374 111.087 255.046 111.087C253.718 111.087 252.805 111.552 252.307 112.482C251.809 113.411 251.56 114.905 251.56 116.963C251.56 119.005 251.801 120.466 252.282 121.345ZM260.474 123.536C259.428 124.931 257.619 125.628 255.046 125.628C252.473 125.628 250.655 124.931 249.593 123.536C248.547 122.126 248.025 119.926 248.025 116.938C248.025 113.951 248.547 111.735 249.593 110.291C250.655 108.83 252.473 108.1 255.046 108.1C257.619 108.1 259.428 108.83 260.474 110.291C261.536 111.735 262.067 113.951 262.067 116.938C262.067 119.926 261.536 122.126 260.474 123.536ZM268.3 119.677C268.3 121.652 269.304 122.64 271.313 122.64C273.321 122.64 274.326 121.652 274.326 119.677V108.398H277.762V119.603C277.762 121.677 277.222 123.204 276.143 124.184C275.081 125.147 273.471 125.628 271.313 125.628C269.155 125.628 267.537 125.147 266.458 124.184C265.395 123.204 264.864 121.677 264.864 119.603V108.398H268.3V119.677ZM287.529 120.399H284.74V125.329H281.304V108.398H287.529C291.546 108.398 293.554 110.357 293.554 114.274C293.554 116.25 293.04 117.768 292.011 118.831C290.998 119.876 289.504 120.399 287.529 120.399ZM284.74 117.461H287.504C289.214 117.461 290.069 116.399 290.069 114.274C290.069 113.229 289.861 112.482 289.446 112.033C289.031 111.569 288.384 111.336 287.504 111.336H284.74V117.461Z" fill="white"/>
<path d="M194.714 89.6802V74.9331H196.226V75.6684C197.26 75.042 198.282 74.7288 199.289 74.7288C200.583 74.7288 201.522 75.1441 202.108 75.9748C202.694 76.7918 202.986 78.1467 202.986 80.0394C202.986 81.9322 202.639 83.2939 201.945 84.1245C201.264 84.9415 200.127 85.35 198.534 85.35C197.703 85.35 196.94 85.2751 196.246 85.1253V89.6802H194.714ZM199.065 76.0973C198.656 76.0973 198.214 76.1654 197.737 76.3016C197.274 76.4378 196.906 76.5739 196.634 76.7101L196.246 76.9143V83.7977C197.213 83.9475 197.948 84.0224 198.452 84.0224C199.555 84.0224 200.324 83.7092 200.76 83.0828C201.209 82.4564 201.434 81.4351 201.434 80.019C201.434 78.6028 201.23 77.5952 200.821 76.996C200.426 76.3969 199.841 76.0973 199.065 76.0973ZM205.036 80.019C205.036 78.1535 205.369 76.8054 206.037 75.9748C206.704 75.1441 207.827 74.7288 209.407 74.7288C211 74.7288 212.123 75.1441 212.777 75.9748C213.444 76.8054 213.778 78.1535 213.778 80.019C213.778 81.8845 213.465 83.2394 212.838 84.0836C212.212 84.9279 211.068 85.35 209.407 85.35C207.746 85.35 206.602 84.9279 205.975 84.0836C205.349 83.2394 205.036 81.8845 205.036 80.019ZM206.609 79.9986C206.609 81.4828 206.786 82.5245 207.14 83.1236C207.507 83.7228 208.263 84.0224 209.407 84.0224C210.564 84.0224 211.32 83.7296 211.674 83.1441C212.028 82.5449 212.205 81.4964 212.205 79.9986C212.205 78.5007 212.008 77.4726 211.613 76.9143C211.218 76.3424 210.483 76.0565 209.407 76.0565C208.345 76.0565 207.609 76.3424 207.201 76.9143C206.806 77.4726 206.609 78.5007 206.609 79.9986ZM215.339 74.9331H216.871L218.934 83.8181H219.261L221.691 75.1373H223.285L225.715 83.8181H226.062L228.105 74.9331H229.637L227.206 85.1458H224.653L222.488 77.1594L220.323 85.1458H217.77L215.339 74.9331ZM238.58 83.8794L239.172 83.8181L239.213 85.0232C237.661 85.2411 236.333 85.35 235.23 85.35C233.759 85.35 232.718 84.9279 232.105 84.0836C231.492 83.2258 231.186 81.8981 231.186 80.1007C231.186 76.5195 232.609 74.7288 235.455 74.7288C236.83 74.7288 237.858 75.1169 238.539 75.8931C239.22 76.6556 239.56 77.8607 239.56 79.5084L239.479 80.6726H232.738C232.738 81.8028 232.942 82.6402 233.351 83.1849C233.759 83.7296 234.468 84.0019 235.475 84.0019C236.496 84.0019 237.531 83.9611 238.58 83.8794ZM238.028 79.4471C238.028 78.1943 237.824 77.3092 237.416 76.7918C237.021 76.2743 236.367 76.0156 235.455 76.0156C234.556 76.0156 233.875 76.288 233.412 76.8326C232.963 77.3773 232.731 78.2488 232.718 79.4471H238.028ZM241.948 85.1458V74.9331H243.459V76.322C244.644 75.505 245.89 74.9671 247.197 74.7084V76.2607C246.625 76.3697 246.026 76.5399 245.399 76.7714C244.787 77.0029 244.317 77.2071 243.99 77.3841L243.48 77.6497V85.1458H241.948ZM255.754 83.8794L256.346 83.8181L256.387 85.0232C254.835 85.2411 253.507 85.35 252.404 85.35C250.933 85.35 249.892 84.9279 249.279 84.0836C248.666 83.2258 248.36 81.8981 248.36 80.1007C248.36 76.5195 249.783 74.7288 252.629 74.7288C254.004 74.7288 255.032 75.1169 255.713 75.8931C256.394 76.6556 256.734 77.8607 256.734 79.5084L256.653 80.6726H249.912C249.912 81.8028 250.116 82.6402 250.525 83.1849C250.933 83.7296 251.642 84.0019 252.649 84.0019C253.67 84.0019 254.705 83.9611 255.754 83.8794ZM255.202 79.4471C255.202 78.1943 254.998 77.3092 254.59 76.7918C254.195 76.2743 253.541 76.0156 252.629 76.0156C251.73 76.0156 251.049 76.288 250.586 76.8326C250.137 77.3773 249.905 78.2488 249.892 79.4471H255.202ZM266.965 70.4804V85.1458H265.454V84.4513C264.405 85.0504 263.37 85.35 262.349 85.35C261.804 85.35 261.328 85.2819 260.919 85.1458C260.511 85.0096 260.129 84.7645 259.775 84.4104C259.04 83.6751 258.672 82.3202 258.672 80.3458C258.672 78.3577 258.999 76.928 259.653 76.0565C260.32 75.1714 261.416 74.7288 262.941 74.7288C263.731 74.7288 264.568 74.8173 265.454 74.9944V70.4804H266.965ZM260.96 83.3075C261.178 83.5662 261.409 83.7432 261.654 83.8385C261.899 83.9338 262.213 83.9815 262.594 83.9815C262.989 83.9815 263.425 83.9202 263.901 83.7977C264.391 83.6615 264.773 83.5322 265.045 83.4096L265.454 83.2258V76.3016C264.582 76.1382 263.772 76.0565 263.023 76.0565C261.988 76.0565 261.266 76.3901 260.858 77.0573C260.449 77.7109 260.245 78.7322 260.245 80.1211C260.245 81.7007 260.483 82.7628 260.96 83.3075ZM278.935 74.7288C280.31 74.7288 281.27 75.1237 281.815 75.9135C282.373 76.6897 282.652 78.0582 282.652 80.019C282.652 81.9798 282.305 83.3619 281.61 84.1653C280.93 84.9551 279.67 85.35 277.832 85.35C277.26 85.35 276.313 85.2955 274.993 85.1866L274.421 85.1253V70.4804H275.932V75.4437C276.967 74.9671 277.968 74.7288 278.935 74.7288ZM277.811 83.9815C279.146 83.9815 280.024 83.6819 280.446 83.0828C280.882 82.47 281.1 81.442 281.1 79.9986C281.1 78.5552 280.93 77.5475 280.589 76.9756C280.249 76.3901 279.643 76.0973 278.771 76.0973C277.982 76.0973 277.171 76.2471 276.341 76.5467L275.932 76.6897V83.8794C276.817 83.9475 277.444 83.9815 277.811 83.9815ZM284.032 74.9331H285.564L288.117 83.8181H288.792L291.365 74.9331H292.897L288.649 89.6802H287.117L288.444 85.1458H286.933L284.032 74.9331Z" fill="white"/>
</svg>
