<svg width="19" height="19" viewBox="0 0 19 19" fill="none" xmlns="http://www.w3.org/2000/svg">
<path d="M18.6 14.4995C18.6 16.5995 17 18.1997 14.9 18.1997H4.19995C2.19995 18.1997 0.5 16.5995 0.5 14.4995V3.79932C0.5 1.79932 2.19995 0.0996094 4.19995 0.0996094H14.9C17 0.0996094 18.6 1.79932 18.6 3.79932V14.4995Z" fill="url(#paint0_radial_1_1694)"/>
<path d="M14.4 5.09942H16.1V2.49933H14H13.6C13.6 2.49933 12 2.39952 11 3.69952C11 3.69952 10.3 4.39913 10.3 6.29913V8.19952H7.90002V10.9993H10.3V18.1995H13.2V10.9993H15.7L16 8.19952H13.2V6.29913C13.2 5.99913 13.3 5.09942 14.4 5.09942Z" fill="white"/>
<defs>
<radialGradient id="paint0_radial_1_1694" cx="0" cy="0" r="1" gradientUnits="userSpaceOnUse" gradientTransform="translate(9.70999 22.3217) scale(24.431 24.4311)">
<stop stop-color="#3B5A98"/>
<stop offset="0.301" stop-color="#3B5A98"/>
<stop offset="1" stop-color="#6382C1"/>
</radialGradient>
</defs>
</svg>
