<svg width="38" height="39" viewBox="0 0 38 39" fill="none" xmlns="http://www.w3.org/2000/svg">
<path d="M3.33341 24.7516C3.33341 24.0156 2.73608 23.4183 2.00008 23.4183C1.26408 23.4183 0.666748 24.0156 0.666748 24.7516H3.33341ZM2.00008 36.7516H0.666748C0.666748 37.4876 1.26408 38.085 2.00008 38.085V36.7516ZM14.0001 38.085C14.7361 38.085 15.3334 37.4876 15.3334 36.7516C15.3334 36.0156 14.7361 35.4183 14.0001 35.4183V38.085ZM0.666748 36.7516H3.33341V24.7516H0.666748V36.7516ZM2.00008 38.085H14.0001V35.4183H2.00008V38.085Z" fill="black"/>
<path d="M21.057 15.8091C20.5357 16.3304 20.5357 17.1744 21.057 17.6944C21.5783 18.2158 22.4223 18.2158 22.9423 17.6944L21.057 15.8091ZM37.609 3.02778C38.1303 2.50778 38.1303 1.66378 37.609 1.14245C37.089 0.622449 36.245 0.622449 35.7237 1.14245L37.609 3.02778ZM22.9423 17.6944L37.609 3.02778L35.7237 1.14245L21.057 15.8091L22.9423 17.6944Z" fill="black"/>
<path d="M24.6666 0.751791C23.9306 0.751791 23.3333 1.34912 23.3333 2.08512C23.3333 2.82112 23.9306 3.41846 24.6666 3.41846V0.751791ZM36.6666 2.08512H37.9999C37.9999 1.34912 37.4026 0.751791 36.6666 0.751791V2.08512ZM35.3333 14.0851C35.3333 14.8211 35.9306 15.4185 36.6666 15.4185C37.4026 15.4185 37.9999 14.8211 37.9999 14.0851H35.3333ZM24.6666 3.41846H36.6666V0.751791H24.6666V3.41846ZM35.3333 14.0851H37.9999V2.08512H35.3333V14.0851Z" fill="black"/>
<path d="M17.6095 23.0278C18.1308 22.5064 18.1308 21.6624 17.6095 21.1424C17.0882 20.6211 16.2442 20.6211 15.7242 21.1424L17.6095 23.0278ZM1.0575 35.8091C0.536171 36.3291 0.536171 37.1731 1.0575 37.6944C1.5775 38.2158 2.4215 38.2158 2.94284 37.6944L1.0575 35.8091ZM15.7242 21.1424L1.0575 35.8091L2.94284 37.6944L17.6095 23.0278L15.7242 21.1424Z" fill="black"/>
</svg>
