<svg width="19" height="19" viewBox="0 0 19 19" fill="none" xmlns="http://www.w3.org/2000/svg">
<path d="M18.6 14.4995C18.6 16.5995 16.9 18.1997 14.9 18.1997H4.19995C2.09995 18.1997 0.400024 16.5995 0.400024 14.4995V3.79932C0.400024 1.79932 2.09995 0.0996094 4.19995 0.0996094H14.9C16.9 0.0996094 18.6 1.79932 18.6 3.79932V14.4995Z" fill="url(#paint0_radial_1_1687)"/>
<path fill-rule="evenodd" clip-rule="evenodd" d="M16.4 6.49951V11.7993C16.4 14.0993 14.5 15.9995 12.1 15.9995H6.90002C4.60002 15.9995 2.69995 14.0993 2.69995 11.7993V6.49951C2.69995 4.19951 4.60002 2.29932 6.90002 2.29932H12.1C14.5 2.29932 16.4 4.19951 16.4 6.49951ZM15 7.09961C15 5.19961 13.5 3.59961 11.6 3.59961H7.40002C5.50002 3.59961 4 5.19961 4 7.09961V11.2993C4 13.1993 5.50002 14.6997 7.40002 14.6997H11.6C13.5 14.6997 15 13.1993 15 11.2993V7.09961Z" fill="white"/>
<path fill-rule="evenodd" clip-rule="evenodd" d="M13.3 9.19971C13.3 11.1997 11.7 12.7993 9.69995 12.7993C7.69995 12.7993 6.09998 11.1997 6.09998 9.19971C6.09998 7.19971 7.69995 5.59961 9.69995 5.59961C11.7 5.59961 13.3 7.19971 13.3 9.19971ZM11.9 9.19971C11.9 7.99971 10.9 6.99951 9.69995 6.99951C8.49995 6.99951 7.5 7.99971 7.5 9.19971C7.5 10.3997 8.49995 11.3994 9.69995 11.3994C10.9 11.3994 11.9 10.3997 11.9 9.19971Z" fill="white"/>
<path d="M14 5.49951C14 5.99951 13.6 6.49951 13 6.49951C12.5 6.49951 12.1 5.99951 12.1 5.49951C12.1 4.99951 12.5 4.59961 13 4.59961C13.6 4.59961 14 4.99951 14 5.49951Z" fill="white"/>
<defs>
<radialGradient id="paint0_radial_1_1687" cx="0" cy="0" r="1" gradientUnits="userSpaceOnUse" gradientTransform="translate(5.75401 19.6487) scale(24.0379 24.0381)">
<stop offset="0.097" stop-color="#FFD77A"/>
<stop offset="0.449" stop-color="#E25F58"/>
<stop offset="0.678" stop-color="#CB3593"/>
<stop offset="1" stop-color="#6568AE"/>
</radialGradient>
</defs>
</svg>
