<svg width="14" height="20" viewBox="0 0 14 20" fill="none" xmlns="http://www.w3.org/2000/svg">
<path opacity="0.7" fill-rule="evenodd" clip-rule="evenodd" d="M13.7 6.7002C13.7 7.8002 13.4 8.8998 12.9 9.7998L7.40004 19.7998C7.26671 19.9331 7.13338 20 7.00005 20C6.86671 20 6.73339 19.9331 6.60005 19.7998L1.10005 9.7998C0.600052 8.8998 0.300049 7.8002 0.300049 6.7002C0.300049 3.0002 3.30005 0 7.00005 0C10.7 0 13.7 3.0002 13.7 6.7002ZM10.3 6.7002C10.3 4.8002 8.80005 3.2998 7.00005 3.2998C5.20005 3.2998 3.70004 4.8002 3.70004 6.7002C3.70004 8.5002 5.20005 10 7.00005 10C8.80005 10 10.3 8.5002 10.3 6.7002Z" fill="white"/>
</svg>
