<svg width="121" height="104" viewBox="0 0 121 104" fill="none" xmlns="http://www.w3.org/2000/svg">
<path d="M3.31065 99.9948H117.633V3.66407H3.31065V99.9948ZM120.809 103.171H0.135986V0.489589H120.809V103.171Z" fill="#ea5b2c"/>
<path d="M117.633 99.9946H3.31067V3.66391H117.633V99.9946Z" fill="#1D1D1B"/>
<path d="M109.032 59.7475C108.99 59.2075 108.525 53.8328 105.937 46.1835C103.486 38.9435 98.5756 28.1995 89.093 18.0955C87.413 15.9435 84.4943 15.2782 81.9503 16.4835C81.9383 16.4888 81.9263 16.4955 81.9143 16.5008C79.129 17.8942 77.9836 21.3795 79.361 24.2715C79.3863 24.3262 79.4143 24.3795 79.4463 24.4302C79.7316 24.9075 80.1356 25.5088 80.7556 26.0075C81.333 26.5888 85.6436 31.0408 89.8103 38.3928C87.381 37.8902 84.8956 37.7782 82.4543 38.0742C75.9876 38.7262 70.1703 41.8608 66.0716 46.9048C61.9996 51.9168 60.1343 58.2128 60.8183 64.6328C61.4623 71.0982 64.5716 76.9155 69.5756 81.0155C73.945 84.5942 79.3143 86.4995 84.913 86.4995C85.7276 86.4995 86.549 86.4595 87.3716 86.3782C93.821 85.7328 99.633 82.5942 103.738 77.5422C107.832 72.5035 109.712 66.1848 109.032 59.7475ZM94.4103 70.0862C92.2396 72.8222 89.3396 74.4995 86.2436 74.8102C86.2383 74.8102 86.233 74.8115 86.2276 74.8115C83.1676 75.1422 80.021 74.1355 77.3703 71.9742C74.477 69.6155 72.6263 66.2542 72.293 62.7528L72.2903 62.7275C71.9423 59.5222 72.9356 56.3955 75.0876 53.9235C77.2263 51.4675 80.2516 49.9128 83.605 49.5448C86.6076 49.2675 89.621 49.9995 92.093 51.6062C94.529 53.1888 96.281 55.5235 97.0316 58.1875C97.209 59.0715 97.3743 59.9115 97.457 60.8128C97.6476 64.0235 96.5383 67.4008 94.4103 70.0862Z" fill="#EA5B2C"/>
<path d="M60.1259 37.752C59.4832 31.2853 56.3725 25.4666 51.3685 21.368C46.3619 17.268 40.0432 15.3626 33.5725 16.0053C27.1232 16.6493 21.3112 19.788 17.2059 24.84C13.1125 29.8786 11.2325 36.1973 11.9125 42.636C11.9539 43.176 12.4192 48.5506 15.0072 56.1986C17.4579 63.4386 22.3685 74.1826 31.8512 84.288C32.9712 85.7213 34.6405 86.4946 36.3832 86.4946C37.2552 86.4946 38.1459 86.3013 38.9939 85.8986C39.0059 85.8933 39.0179 85.888 39.0299 85.8813C41.8152 84.4893 42.9605 81.0026 41.5832 78.112C41.5579 78.0573 41.5299 78.004 41.4979 77.952C41.2125 77.476 40.8085 76.8746 40.1885 76.376C39.6112 75.7933 35.2992 71.3413 31.1339 63.9893C33.5632 64.4933 36.0485 64.604 38.4885 64.3093C44.9565 63.6573 50.7739 60.5213 54.8712 55.4773C58.9445 50.4666 60.8099 44.1706 60.1259 37.752ZM45.8565 48.4586C43.7179 50.916 40.6925 52.4706 37.3379 52.8373C34.3379 53.1146 31.3232 52.3826 28.8512 50.7773C26.4152 49.1946 24.6632 46.8586 23.9125 44.1946C23.7352 43.3106 23.5699 42.472 23.4872 41.5693C23.2952 38.36 24.4059 34.9813 26.5339 32.2973C28.7045 29.56 31.6045 27.8826 34.7005 27.5733C34.7059 27.572 34.7112 27.572 34.7165 27.572C37.7765 27.24 40.9232 28.2466 43.5739 30.4093C46.4672 32.7666 48.3179 36.128 48.6512 39.6306C48.6525 39.6386 48.6539 39.6466 48.6539 39.6546C49.0019 42.8613 48.0085 45.988 45.8565 48.4586Z" fill="white"/>
</svg>
