<svg width="19" height="19" viewBox="0 0 19 19" fill="none" xmlns="http://www.w3.org/2000/svg">
<path d="M18.3 14.4995C18.3 16.5995 16.6 18.1997 14.6 18.1997H3.90002C1.80002 18.1997 0.199951 16.5995 0.199951 14.4995V3.79932C0.199951 1.79932 1.80002 0.0996094 3.90002 0.0996094H14.6C16.6 0.0996094 18.3 1.79932 18.3 3.79932V14.4995Z" fill="url(#paint0_radial_1_1698)"/>
<path d="M4.59992 15.2993C1.59992 12.6993 3.4999 6.79961 8.1999 7.59961V8.09961C4.1999 7.89961 2.49992 12.5993 4.59992 15.2993ZM13.0999 5.09961C13.4999 5.49961 14.1999 5.79941 15.0999 5.89941V6.39941C14.0999 6.19941 13.4999 5.69961 13.0999 5.09961ZM11.8 2.39941C11.8 2.59941 11.8333 2.79951 11.9 2.99951H9.99995V12.1997C9.99995 12.5997 9.96664 12.966 9.89997 13.2993C9.09997 14.9993 6.99997 14.7996 6.39997 13.5996C7.29997 14.1996 8.7 13.9997 9.3 12.6997C9.36666 12.3664 9.39997 11.9996 9.39997 11.5996V2.39941H11.8Z" fill="#6AC9D2"/>
<path d="M12.4001 2.99951C12.4001 3.19951 12.4 6.29951 15.7 6.49951C15.7 9.29951 15.7 6.49932 15.7 8.79932C15.4 8.89932 13.5001 8.69971 12.4001 7.69971V12.2993C12.4001 14.3993 11.2 16.4999 9.00004 16.8999C8.40004 16.9999 7.90006 16.9993 6.90006 16.7993C1.60006 15.1993 3.39999 7.29961 8.69999 8.09961C8.69999 10.6996 8.69999 8.09971 8.69999 10.6997C6.49999 10.3997 5.80006 12.1995 6.40006 13.4995C6.90006 14.7995 9.10006 14.9993 9.90006 13.2993C9.96673 12.966 10 12.5997 10 12.1997V2.99951H12.4001Z" fill="white"/>
<path fill-rule="evenodd" clip-rule="evenodd" d="M15.1 6.39941C15.3 6.39941 15.5 6.43285 15.7 6.49951C15.7 9.29951 15.7 6.49932 15.7 8.79932C15.4 8.89932 13.5 8.69971 12.4 7.69971V12.2993C12.4 14.3993 11.2 16.4999 9 16.8999C8.4 16.9999 7.90002 16.9993 6.90002 16.7993C5.90002 16.4993 5.09998 15.9993 4.59998 15.2993C5.06664 15.6993 5.66669 15.9997 6.40002 16.1997C7.30002 16.3997 7.8 16.3993 8.5 16.2993C10.7 15.8993 11.8 13.7997 11.8 11.6997V7.09961C13 8.09961 14.9 8.29932 15.1 8.29932C15.1 5.99932 15.1 8.39941 15.1 6.39941ZM8.19995 8.09961C8.33328 8.09961 8.49995 8.09961 8.69995 8.09961C8.69995 10.6996 8.69995 8.09971 8.69995 10.6997C6.49995 10.3997 5.80002 12.1995 6.40002 13.4995C6.40002 13.5662 6.40002 13.5996 6.40002 13.5996C6.13336 13.4663 5.93338 13.2662 5.80005 12.9995C5.20005 11.5995 5.89995 9.79961 8.19995 10.0996C8.19995 7.79961 8.19995 9.69961 8.19995 8.09961ZM12.4 2.99951C12.4 3.09951 12.4 4.19961 13.1 5.09961C12.2 4.49961 12 3.59951 11.9 2.99951H12.4Z" fill="#EC1B52"/>
<defs>
<radialGradient id="paint0_radial_1_1698" cx="0" cy="0" r="1" gradientUnits="userSpaceOnUse" gradientTransform="translate(9.358 22.3217) scale(24.4311)">
<stop stop-color="#58595B"/>
<stop offset="0.348" stop-color="#404041"/>
<stop offset="1" stop-color="#231F20"/>
</radialGradient>
</defs>
</svg>
