<svg width="19" height="19" viewBox="0 0 19 19" fill="none" xmlns="http://www.w3.org/2000/svg">
<path d="M18.1 14.4995C18.1 16.5995 16.5 18.1997 14.4 18.1997H3.69995C1.69995 18.1997 0 16.5995 0 14.4995V3.79932C0 1.79932 1.69995 0.0996094 3.69995 0.0996094H14.4C16.5 0.0996094 18.1 1.79932 18.1 3.79932V14.4995Z" fill="url(#paint0_radial_1_1681)"/>
<path fill-rule="evenodd" clip-rule="evenodd" d="M15.8 9.09961C15.8 12.7996 12.8 15.6997 9.19995 15.6997C7.99995 15.6997 6.9 15.3999 6 14.8999L2.59998 15.8999L3.5 12.4995C2.9 11.4995 2.5 10.2996 2.5 9.09961C2.5 5.49961 5.49995 2.49951 9.19995 2.49951C12.8 2.49951 15.8 5.49961 15.8 9.09961ZM14.7 9.09961C14.7 6.09961 12.3 3.59961 9.19995 3.59961C6.19995 3.59961 3.69995 6.09961 3.69995 9.09961C3.69995 10.2996 4.09995 11.3993 4.69995 12.2993L4.19995 14.1997L6.09998 13.6997C6.99998 14.2997 8.09995 14.5991 9.19995 14.5991C12.3 14.5991 14.7 12.1996 14.7 9.09961Z" fill="url(#paint1_radial_1_1681)"/>
<path d="M7.50003 8.59983C7.56669 8.53316 7.63331 8.43287 7.69998 8.29954C7.89998 8.19954 8.1 7.99954 8.1 7.79954C8.1 7.59954 8.00005 7.39993 7.90005 7.19993C7.90005 7.06659 7.86674 6.93287 7.80008 6.79954C7.70008 6.59954 7.60003 6.29993 7.50003 6.19993C7.30003 5.99993 7.00008 5.99983 6.80008 6.09983C6.80008 6.09983 5.50005 6.69973 5.90005 7.99973C5.90005 7.99973 6.7 11.4999 10.6 12.1999C10.6 12.1999 12.0001 12.3998 12.3001 11.5998C12.4001 11.3998 12.5 11.0996 12.5 10.8996C12.5 10.6996 12.3 10.5997 12.2 10.4997C12 10.3997 11.8 10.2999 11.5 10.1999C11.3 10.0999 11.1001 9.89973 10.9001 9.99973C10.7001 9.99973 10.6 10.1995 10.5 10.2995C10.3 10.4329 10.1334 10.5995 10 10.7995C10 10.7995 8.00003 10.0998 7.50003 8.59983Z" fill="url(#paint2_radial_1_1681)"/>
<defs>
<radialGradient id="paint0_radial_1_1681" cx="0" cy="0" r="1" gradientUnits="userSpaceOnUse" gradientTransform="translate(8.43799 21.8927) scale(23.336 23.3361)">
<stop offset="0.26" stop-color="#3CB44A"/>
<stop offset="0.76" stop-color="#62BC65"/>
</radialGradient>
<radialGradient id="paint1_radial_1_1681" cx="0" cy="0" r="1" gradientUnits="userSpaceOnUse" gradientTransform="translate(6.54901 16.2349) scale(14.3151 14.3154)">
<stop offset="0.219" stop-color="#E7E6E6"/>
<stop offset="0.883" stop-color="#FCFCFC"/>
</radialGradient>
<radialGradient id="paint2_radial_1_1681" cx="0" cy="0" r="1" gradientUnits="userSpaceOnUse" gradientTransform="translate(6.70005 13.2359) scale(6.40398 6.40404)">
<stop offset="0.219" stop-color="#E7E6E6"/>
<stop offset="0.883" stop-color="white"/>
</radialGradient>
</defs>
</svg>
